# xmcd CD database file
#
# Track frame offsets:
#	150
#	25399
#	40440
#	65667
#
# Disc length: 1072 seconds
#
# Revision: 1
# Processed by: cddbd v1.5.2PL0 Copyright (c) Steve Scherf et al.
# Submitted via: CDex 1.70beta3
#
DISCID=35042e04
DTITLE=SOPHIA - ANSWER -イチバンタダシイコタエ-
DYEAR=2005
DGENRE=Rock
TTITLE0=ANSWER -イチバンタダシイコタエ-
TTITLE1=アウト
TTITLE2=ANSWER -イチバンタダシイコタエ- (Instrumental)
TTITLE3=アウト (Instrumental)
EXTD=YEAR: 2005
EXTT0=
EXTT1=
EXTT2=
EXTT3=
PLAYORDER=
